<?xml version="1.0" encoding="UTF-8" standalone="no"?>
<!-- Created with Inkscape (http://www.inkscape.org/) -->

<svg
   width="137.48241mm"
   height="75.821365mm"
   viewBox="0 0 137.48241 75.821363"
   version="1.1"
   id="svg1"
   inkscape:version="1.4.2 (ebf0e940, 2025-05-08)"
   sodipodi:docname="fortnet.svg"
   xmlns:inkscape="http://www.inkscape.org/namespaces/inkscape"
   xmlns:sodipodi="http://sodipodi.sourceforge.net/DTD/sodipodi-0.dtd"
   xmlns="http://www.w3.org/2000/svg"
   xmlns:svg="http://www.w3.org/2000/svg">
  <sodipodi:namedview
     id="namedview1"
     pagecolor="#ffffff"
     bordercolor="#000000"
     borderopacity="0.25"
     inkscape:showpageshadow="2"
     inkscape:pageopacity="0.0"
     inkscape:pagecheckerboard="0"
     inkscape:deskcolor="#d1d1d1"
     inkscape:document-units="mm"
     inkscape:zoom="4.3962349"
     inkscape:cx="526.58696"
     inkscape:cy="158.65849"
     inkscape:window-width="1456"
     inkscape:window-height="920"
     inkscape:window-x="57"
     inkscape:window-y="34"
     inkscape:window-maximized="1"
     inkscape:current-layer="svg1" />
  <defs
     id="defs1">
    <rect
       x="133.61508"
       y="577.28564"
       width="450.58508"
       height="304.91647"
       id="rect14" />
    <rect
       x="131.90205"
       y="597.8418"
       width="520.75616"
       height="364.87195"
       id="rect13" />
  </defs>
  <path
     style="fill:#000000;fill-opacity:0.180791;stroke:#000000;stroke-width:0.8;stroke-linecap:square;stroke-miterlimit:50;stroke-dasharray:none;stroke-opacity:0.733051"
     d="m -1.9167803,69.953254 c 1.47549272,-1.463701 10.7494697,-4.652835 13.7962083,-7.057404 6.90491,-5.406612 14.575836,-9.838539 20.660715,-16.231106 4.813754,-4.493819 9.335092,-9.399804 15.191988,-12.569674 4.563592,-2.993607 8.756495,-6.446298 13.513608,-9.118063 4.15819,-2.687289 7.309095,-6.665042 11.109914,-9.697415 4.602744,-1.554853 11.301848,-8.3174336 14.75215,-2.141762 3.633886,5.504295 10.01975,7.058183 15.090817,10.675461 4.54686,2.742934 10.01791,4.598876 12.30207,9.641881 4.56933,3.147736 10.28951,4.03966 15.48782,5.8102 1.78337,0.446846 6.79595,3.366729 8.60176,3.710579 l -0.0398,34.052253 -140.4770391,0.638873 z"
     id="path14"
     sodipodi:nodetypes="cccccccccccccc" />
  <g
     inkscape:label="Layer 1"
     inkscape:groupmode="layer"
     id="layer1"
     transform="translate(-37.618496,-104.69726)">
    <path
       style="font-weight:500;font-size:35.2777px;line-height:1.1;font-family:Futura;-inkscape-font-specification:'Futura Medium';letter-spacing:0px;word-spacing:0px;white-space:pre;stroke-width:0.4;stroke-linecap:square;stroke-miterlimit:50"
       d="m 62.031064,140.35285 h -9.267287 v 6.39064 h 8.940003 v 3.77237 h -8.940003 v 12.6607 H 48.75025 v -26.59608 h 13.280814 z m 2.807746,14.31434 c 0,-2.42305 0.867014,-4.48436 2.601041,-6.18393 1.734028,-1.69958 3.847015,-2.54937 6.338962,-2.54937 2.503431,0 4.627901,0.85553 6.373412,2.56659 1.722544,1.71106 2.583816,3.81256 2.583816,6.30451 0,2.51491 -0.867014,4.62216 -2.601041,6.32174 -1.745511,1.68809 -3.887208,2.53214 -6.425089,2.53214 -2.514914,0 -4.622159,-0.86127 -6.321736,-2.58382 -1.699577,-1.69957 -2.549365,-3.83553 -2.549365,-6.40786 z m 3.961851,0.0689 c 0,1.67661 0.447861,3.00297 1.343584,3.97908 0.91869,0.98759 2.130213,1.48139 3.634568,1.48139 1.515839,0 2.727361,-0.48806 3.634567,-1.46417 0.907207,-0.97611 1.36081,-2.2795 1.36081,-3.91017 0,-1.63067 -0.453603,-2.93407 -1.36081,-3.91018 -0.91869,-0.98759 -2.130212,-1.48138 -3.634567,-1.48138 -1.481388,0 -2.681427,0.49379 -3.600117,1.48138 -0.91869,0.98759 -1.378035,2.26228 -1.378035,3.82405 z m 18.035037,-8.33711 h 3.875723 v 1.49861 c 0.711985,-0.74643 1.343585,-1.25745 1.894799,-1.53306 0.562697,-0.28709 1.228748,-0.43064 1.998151,-0.43064 1.022043,0 2.09002,0.33303 3.203931,0.99908 l -1.77422,3.54844 c -0.734952,-0.52825 -1.452679,-0.79237 -2.15318,-0.79237 -2.112987,0 -3.169481,1.59622 -3.169481,4.78867 v 8.69885 h -3.875723 z m 18.465662,3.61734 v 13.16024 h -3.87572 v -13.16024 h -1.653637 v -3.61734 h 1.653637 v -6.14948 h 3.87572 v 6.14948 h 3.01445 v 3.61734 z m 6.39064,13.16024 v -28.40475 l 19.39584,20.29157 v -18.4829 h 4.01353 v 28.21527 l -19.39584,-20.23989 v 18.6207 z m 44.71724,-7.47584 h -12.02336 c 0.10335,1.37803 0.55121,2.47472 1.34358,3.29006 0.79237,0.80385 1.80868,1.20578 3.04891,1.20578 0.96462,0 1.76273,-0.22967 2.39433,-0.68902 0.62012,-0.45935 1.32636,-1.30914 2.11873,-2.54937 l 3.27283,1.8259 c -0.50527,0.86127 -1.03926,1.60197 -1.60196,2.22208 -0.5627,0.60863 -1.16559,1.11391 -1.80867,1.51584 -0.64309,0.39045 -1.33785,0.67754 -2.08428,0.86127 -0.74643,0.18374 -1.55603,0.27561 -2.42879,0.27561 -2.50343,0 -4.51306,-0.80385 -6.0289,-2.41156 -1.51584,-1.61919 -2.27376,-3.76663 -2.27376,-6.44232 0,-2.65271 0.73495,-4.80015 2.20486,-6.44231 1.48139,-1.61919 3.44509,-2.42879 5.8911,-2.42879 2.46898,0 4.4212,0.78663 5.85665,2.35989 1.42397,1.56177 2.13595,3.72644 2.13595,6.49399 z m -3.97908,-3.16948 c -0.53973,-2.06705 -1.84313,-3.10058 -3.91018,-3.10058 -0.47083,0 -0.91294,0.0746 -1.32635,0.22393 -0.41341,0.1378 -0.79237,0.3445 -1.13688,0.62011 -0.33303,0.26413 -0.62012,0.58567 -0.86128,0.96463 -0.24115,0.37896 -0.42489,0.8096 -0.55121,1.29191 z m 12.5229,-2.51492 v 13.16024 h -3.87573 v -13.16024 h -1.65364 v -3.61734 h 1.65364 v -6.14948 h 3.87573 v 6.14948 h 3.01445 v 3.61734 z"
       id="text1"
       aria-label="FortNet"
       sodipodi:nodetypes="cccccccccccssscscscsscssscsssccccsccssccccccccccccccccccccccccccccscccccsscscsccccsccsccccccccccccccc" />
  </g>
</svg>
