<?xml version="1.0" encoding="UTF-8" standalone="no"?>
<!-- Created with Inkscape (http://www.inkscape.org/) -->

<svg
   width="137.48241mm"
   height="75.821365mm"
   viewBox="0 0 137.48241 75.821363"
   version="1.1"
   id="svg1"
   inkscape:version="1.4.2 (ebf0e940, 2025-05-08)"
   sodipodi:docname="fortnet-with-subtitle.svg"
   xmlns:inkscape="http://www.inkscape.org/namespaces/inkscape"
   xmlns:sodipodi="http://sodipodi.sourceforge.net/DTD/sodipodi-0.dtd"
   xmlns="http://www.w3.org/2000/svg"
   xmlns:svg="http://www.w3.org/2000/svg">
  <sodipodi:namedview
     id="namedview1"
     pagecolor="#ffffff"
     bordercolor="#000000"
     borderopacity="0.25"
     inkscape:showpageshadow="2"
     inkscape:pageopacity="0.0"
     inkscape:pagecheckerboard="0"
     inkscape:deskcolor="#d1d1d1"
     inkscape:document-units="mm"
     inkscape:zoom="0.58376646"
     inkscape:cx="358.01988"
     inkscape:cy="100.21131"
     inkscape:window-width="1456"
     inkscape:window-height="920"
     inkscape:window-x="57"
     inkscape:window-y="34"
     inkscape:window-maximized="1"
     inkscape:current-layer="layer1" />
  <defs
     id="defs1">
    <rect
       x="133.61508"
       y="577.28564"
       width="450.58508"
       height="304.91647"
       id="rect14" />
    <rect
       x="131.90205"
       y="597.8418"
       width="520.75616"
       height="364.87195"
       id="rect13" />
  </defs>
  <g
     inkscape:label="Layer 1"
     inkscape:groupmode="layer"
     id="layer1"
     transform="translate(-37.618496,-104.69726)">
    <path
       style="font-weight:500;font-size:35.2777px;line-height:1.1;font-family:Futura;-inkscape-font-specification:'Futura Medium';letter-spacing:0px;word-spacing:0px;white-space:pre;stroke-width:0.4;stroke-linecap:square;stroke-miterlimit:50"
       d="m 60.094309,115.57853 h -9.267287 v 6.39064 h 8.940003 v 3.77237 h -8.940003 v 12.6607 h -4.013527 v -26.59608 h 13.280814 z m 2.807746,14.31434 c 0,-2.42305 0.867014,-4.48436 2.601041,-6.18393 1.734028,-1.69958 3.847015,-2.54937 6.338962,-2.54937 2.503431,0 4.627901,0.85553 6.373412,2.56659 1.722544,1.71106 2.583816,3.81256 2.583816,6.30451 0,2.51491 -0.867014,4.62216 -2.601041,6.32174 -1.745511,1.68809 -3.887208,2.53214 -6.425089,2.53214 -2.514914,0 -4.622159,-0.86127 -6.321736,-2.58382 -1.699577,-1.69957 -2.549365,-3.83553 -2.549365,-6.40786 z m 3.961851,0.0689 c 0,1.67661 0.447861,3.00297 1.343584,3.97908 0.91869,0.98759 2.130213,1.48139 3.634568,1.48139 1.515839,0 2.727361,-0.48806 3.634567,-1.46417 0.907207,-0.97611 1.36081,-2.2795 1.36081,-3.91017 0,-1.63067 -0.453603,-2.93407 -1.36081,-3.91018 -0.91869,-0.98759 -2.130212,-1.48138 -3.634567,-1.48138 -1.481388,0 -2.681427,0.49379 -3.600117,1.48138 -0.91869,0.98759 -1.378035,2.26228 -1.378035,3.82405 z m 18.035037,-8.33711 h 3.875723 v 1.49861 c 0.711985,-0.74643 1.343585,-1.25745 1.894799,-1.53306 0.562697,-0.28709 1.228748,-0.43064 1.998151,-0.43064 1.022043,0 2.09002,0.33303 3.203931,0.99908 l -1.77422,3.54844 c -0.734952,-0.52825 -1.452679,-0.79237 -2.15318,-0.79237 -2.112987,0 -3.169481,1.59622 -3.169481,4.78867 v 8.69885 h -3.875723 z m 18.465667,3.61734 v 13.16024 H 99.488889 V 125.242 h -1.653642 v -3.61734 h 1.653642 v -6.14948 h 3.875721 v 6.14948 h 3.01445 v 3.61734 z m 6.39064,13.16024 v -28.40475 l 19.39584,20.29157 v -18.4829 h 4.01353 v 28.21527 l -19.39584,-20.23989 v 18.6207 z m 44.71724,-7.47584 h -12.02336 c 0.10335,1.37803 0.55121,2.47472 1.34358,3.29006 0.79237,0.80385 1.80868,1.20578 3.04891,1.20578 0.96462,0 1.76273,-0.22967 2.39433,-0.68902 0.62012,-0.45935 1.32636,-1.30914 2.11873,-2.54937 l 3.27283,1.8259 c -0.50527,0.86127 -1.03926,1.60197 -1.60196,2.22208 -0.5627,0.60863 -1.16559,1.11391 -1.80867,1.51584 -0.64309,0.39045 -1.33785,0.67754 -2.08428,0.86127 -0.74643,0.18374 -1.55603,0.27561 -2.42879,0.27561 -2.50343,0 -4.51306,-0.80385 -6.0289,-2.41156 -1.51584,-1.61919 -2.27376,-3.76663 -2.27376,-6.44232 0,-2.65271 0.73495,-4.80015 2.20486,-6.44231 1.48139,-1.61919 3.44509,-2.42879 5.8911,-2.42879 2.46898,0 4.4212,0.78663 5.85665,2.35989 1.42397,1.56177 2.13595,3.72644 2.13595,6.49399 z m -3.97908,-3.16948 c -0.53973,-2.06705 -1.84313,-3.10058 -3.91018,-3.10058 -0.47083,0 -0.91294,0.0746 -1.32635,0.22393 -0.41341,0.1378 -0.79237,0.3445 -1.13688,0.62011 -0.33303,0.26413 -0.62012,0.58567 -0.86128,0.96463 -0.24115,0.37896 -0.42489,0.8096 -0.55121,1.29191 z m 12.5229,-2.51492 v 13.16024 h -3.87573 V 125.242 h -1.65364 v -3.61734 h 1.65364 v -6.14948 h 3.87573 v 6.14948 h 3.01445 v 3.61734 z"
       id="text1"
       aria-label="FortNet"
       sodipodi:nodetypes="cccccccccccssscscscsscssscsssccccsccssccccccccccccccccccccccccccccscccccsscscsccccsccsccccccccccccccc" />
    <path
       style="font-weight:500;font-size:26.6667px;line-height:1.1;font-family:Futura;-inkscape-font-specification:'Futura Medium';text-align:justify;letter-spacing:0px;word-spacing:0px;white-space:pre;stroke-width:1.51181;stroke-linecap:square;stroke-miterlimit:50"
       d="m 146.06317,640.31179 h -7.00522 v 4.83074 h 6.75782 v 2.85156 h -6.75782 v 9.57033 h -3.03386 v -20.10419 h 10.03908 z m 2.1224,10.82033 q 0,-2.7474 1.96614,-4.67449 1.96615,-1.92708 4.79168,-1.92708 2.83854,0 4.81771,1.9401 1.95313,1.94011 1.95313,4.76564 0,2.85156 -1.96615,4.77865 -1.97917,1.91406 -4.85678,1.91406 -2.85156,0 -4.77865,-1.95312 -1.92708,-1.92709 -1.92708,-4.84376 z m 2.99479,0.0521 q 0,1.90105 1.01563,3.00782 1.04167,1.11979 2.7474,1.11979 1.71875,0 2.7474,-1.10677 1.02864,-1.10677 1.02864,-2.95573 0,-1.84896 -1.02864,-2.95574 -1.04167,-1.11979 -2.7474,-1.11979 -1.67969,0 -2.72136,1.11979 -1.04167,1.1198 -1.04167,2.89063 z m 13.63283,-6.30209 h 2.92969 v 1.13282 q 0.80729,-0.84636 1.43229,-1.15886 0.63803,-0.32552 1.51042,-0.32552 1.15886,0 2.42188,0.75521 l -1.34115,2.68229 q -0.83333,-0.59896 -1.6276,-0.59896 -2.39584,0 -2.39584,3.6198 v 6.57553 h -2.92969 z m 13.95835,2.73438 v 9.94793 h -2.92969 v -9.94793 h -1.25 v -2.73438 h 1.25 v -4.64844 h 2.92969 v 4.64844 h 2.27865 v 2.73438 z m 7.20053,-2.73438 v 12.68231 h -2.92969 v -12.68231 z m -3.3724,-5.27344 q 0,-0.76823 0.5599,-1.32813 0.5599,-0.5599 1.34115,-0.5599 0.79427,0 1.35416,0.5599 0.5599,0.54688 0.5599,1.34115 0,0.79427 -0.5599,1.35417 -0.54687,0.55989 -1.34114,0.55989 -0.79427,0 -1.35417,-0.55989 -0.5599,-0.5599 -0.5599,-1.36719 z m 17.52607,1.92708 h -2.9297 v -1.18489 q 0,-0.96355 -0.625,-1.69272 -0.66406,-0.74218 -1.6276,-0.74218 -0.95053,0 -1.60157,0.72916 -0.63802,0.71615 -0.63802,1.70574 v 4.53125 h 3.35938 v 2.73438 h -3.35938 v 9.94793 h -2.92969 v -9.94793 h -1.04167 v -2.73438 h 1.04167 v -4.53125 q 0,-2.13542 1.51042,-3.64584 1.52344,-1.52344 3.67188,-1.52344 2.13542,0 3.64584,1.52344 1.52344,1.51042 1.52344,3.64584 z m 0,16.02867 h -2.9297 v -12.68231 h 2.9297 z m 13.58074,-12.13543 v 3.89323 q -1.0026,-1.22396 -1.79688,-1.67969 -0.78125,-0.46875 -1.83594,-0.46875 -1.65364,0 -2.74739,1.15886 -1.09376,1.15885 -1.09376,2.90365 0,1.78385 1.05469,2.92969 1.06771,1.14583 2.72136,1.14583 1.05469,0 1.86198,-0.45573 0.78125,-0.44271 1.83594,-1.71875 v 3.86719 q -1.78385,0.92448 -3.56771,0.92448 -2.94271,0 -4.92188,-1.90104 -1.97917,-1.91407 -1.97917,-4.75261 0,-2.83855 2.00521,-4.79167 2.00521,-1.95313 4.92188,-1.95313 1.875,0 3.54167,0.89844 z m 12.18752,-0.54688 h 2.94271 v 12.68231 H 225.894 v -1.32813 q -1.8099,1.69271 -3.89324,1.69271 -2.63021,0 -4.34896,-1.90104 -1.70573,-1.94011 -1.70573,-4.84376 0,-2.85156 1.70573,-4.75261 1.70573,-1.90104 4.27084,-1.90104 2.21354,0 3.97136,1.82292 z m -6.95314,6.30209 q 0,1.82292 0.97657,2.96876 1.0026,1.15885 2.52604,1.15885 1.62761,0 2.63022,-1.11979 1.0026,-1.15886 1.0026,-2.94271 0,-1.78386 -1.0026,-2.94272 -1.00261,-1.13281 -2.60417,-1.13281 -1.51042,0 -2.52605,1.14584 -1.00261,1.15885 -1.00261,2.86458 z m 16.61461,-3.56771 v 9.94793 h -2.92969 v -9.94793 h -1.25001 v -2.73438 h 1.25001 v -4.64844 h 2.92969 v 4.64844 h 2.27865 v 2.73438 z m 7.20053,-2.73438 v 12.68231 h -2.92969 v -12.68231 z m -3.3724,-5.27344 q 0,-0.76823 0.5599,-1.32813 0.55989,-0.5599 1.34114,-0.5599 0.79428,0 1.35417,0.5599 0.5599,0.54688 0.5599,1.34115 0,0.79427 -0.5599,1.35417 -0.54687,0.55989 -1.34114,0.55989 -0.79428,0 -1.35417,-0.55989 -0.5599,-0.5599 -0.5599,-1.36719 z m 6.48438,11.52345 q 0,-2.7474 1.96615,-4.67449 1.96615,-1.92708 4.79167,-1.92708 2.83855,0 4.81772,1.9401 1.95313,1.94011 1.95313,4.76564 0,2.85156 -1.96615,4.77865 -1.97917,1.91406 -4.85678,1.91406 -2.85157,0 -4.77865,-1.95312 -1.92709,-1.92709 -1.92709,-4.84376 z m 2.9948,0.0521 q 0,1.90105 1.01562,3.00782 1.04167,1.11979 2.7474,1.11979 1.71876,0 2.7474,-1.10677 1.02865,-1.10677 1.02865,-2.95573 0,-1.84896 -1.02865,-2.95574 -1.04167,-1.11979 -2.7474,-1.11979 -1.67969,0 -2.72135,1.11979 -1.04167,1.1198 -1.04167,2.89063 z m 13.63283,-6.30209 h 2.94271 v 1.17188 q 1.53646,-1.52344 3.46354,-1.52344 2.21355,0 3.45053,1.39323 1.06771,1.1849 1.06771,3.86719 v 7.77345 h -2.94271 v -7.08334 q 0,-1.87501 -0.52084,-2.59115 -0.50781,-0.72917 -1.84896,-0.72917 -1.45833,0 -2.07031,0.96354 -0.59896,0.95052 -0.59896,3.32032 v 6.1198 h -2.94271 z m 35.915,0 h 2.94271 v 12.68231 h -2.94271 v -1.32813 q -1.8099,1.69271 -3.89324,1.69271 -2.63021,0 -4.34896,-1.90104 -1.70573,-1.94011 -1.70573,-4.84376 0,-2.85156 1.70573,-4.75261 1.70573,-1.90104 4.27084,-1.90104 2.21354,0 3.97136,1.82292 z m -6.95314,6.30209 q 0,1.82292 0.97657,2.96876 1.0026,1.15885 2.52604,1.15885 1.62761,0 2.63021,-1.11979 1.00261,-1.15886 1.00261,-2.94271 0,-1.78386 -1.00261,-2.94272 -1.0026,-1.13281 -2.60417,-1.13281 -1.51041,0 -2.52604,1.14584 -1.00261,1.15885 -1.00261,2.86458 z m 13.59378,-6.30209 h 2.94271 v 1.17188 q 1.53646,-1.52344 3.46354,-1.52344 2.21355,0 3.45053,1.39323 1.06771,1.1849 1.06771,3.86719 v 7.77345 h -2.94271 v -7.08334 q 0,-1.87501 -0.52084,-2.59115 -0.50781,-0.72917 -1.84896,-0.72917 -1.45833,0 -2.07031,0.96354 -0.59896,0.95052 -0.59896,3.32032 v 6.1198 h -2.94271 z m 23.97137,-9.30991 h 2.94271 v 21.99222 h -2.94271 v -1.32813 q -1.73177,1.69271 -3.91927,1.69271 -2.60417,0 -4.32293,-1.90104 -1.70573,-1.94011 -1.70573,-4.84376 0,-2.83854 1.70573,-4.73959 1.69272,-1.91406 4.25782,-1.91406 2.22657,0 3.98438,1.82292 z m -6.95313,15.612 q 0,1.82292 0.97656,2.96876 1.00261,1.15885 2.52605,1.15885 1.6276,0 2.63021,-1.11979 1.0026,-1.15886 1.0026,-2.94271 0,-1.78386 -1.0026,-2.94272 -1.00261,-1.13281 -2.60417,-1.13281 -1.51042,0 -2.52605,1.14584 -1.0026,1.15885 -1.0026,2.86458 z m 28.46708,13.28127 h -2.92969 v -19.58336 h 2.92969 v 1.38021 q 1.73177,-1.73177 3.9323,-1.73177 2.61719,0 4.3099,1.92708 1.71875,1.91407 1.71875,4.83074 0,2.85157 -1.70573,4.75261 -1.69271,1.88802 -4.27084,1.88802 -2.22656,0 -3.98438,-1.78385 z m 6.96616,-13.16408 q 0,-1.82292 -0.98959,-2.96875 -1.0026,-1.15886 -2.52604,-1.15886 -1.61459,0 -2.61719,1.11979 -1.00261,1.1198 -1.00261,2.94272 0,1.78385 1.00261,2.94271 0.98958,1.13281 2.60417,1.13281 1.52343,0 2.51302,-1.14583 1.01563,-1.14584 1.01563,-2.86459 z m 5.4948,-0.16927 q 0,-2.7474 1.96615,-4.67449 1.96615,-1.92708 4.79167,-1.92708 2.83855,0 4.81772,1.9401 1.95312,1.94011 1.95312,4.76564 0,2.85156 -1.96615,4.77865 -1.97916,1.91406 -4.85677,1.91406 -2.85157,0 -4.77865,-1.95312 -1.92709,-1.92709 -1.92709,-4.84376 z m 2.9948,0.0521 q 0,1.90105 1.01562,3.00782 1.04167,1.11979 2.7474,1.11979 1.71875,0 2.7474,-1.10677 1.02865,-1.10677 1.02865,-2.95573 0,-1.84896 -1.02865,-2.95574 -1.04167,-1.11979 -2.7474,-1.11979 -1.67969,0 -2.72136,1.11979 -1.04166,1.1198 -1.04166,2.89063 z m 16.56251,13.28127 h -2.9297 v -19.58336 h 2.9297 v 1.38021 q 1.73177,-1.73177 3.93229,-1.73177 2.61719,0 4.3099,1.92708 1.71876,1.91407 1.71876,4.83074 0,2.85157 -1.70574,4.75261 -1.69271,1.88802 -4.27083,1.88802 -2.22657,0 -3.98438,-1.78385 z m 6.96615,-13.16408 q 0,-1.82292 -0.98958,-2.96875 -1.00261,-1.15886 -2.52605,-1.15886 -1.61458,0 -2.61719,1.11979 -1.00261,1.1198 -1.00261,2.94272 0,1.78385 1.00261,2.94271 0.98958,1.13281 2.60417,1.13281 1.52344,0 2.51302,-1.14583 1.01563,-1.14584 1.01563,-2.86459 z m 9.02347,-6.41928 v 7.27866 q 0,3.15104 2.48698,3.15104 2.48698,0 2.48698,-3.15104 v -7.27866 h 2.9297 v 7.34376 q 0,1.52344 -0.37761,2.63021 -0.36458,0.98959 -1.26302,1.78386 -1.48438,1.28906 -3.77605,1.28906 -2.27865,0 -3.76302,-1.28906 -0.91146,-0.79427 -1.28907,-1.78386 -0.36458,-0.88542 -0.36458,-2.63021 v -7.34376 z m 14.53125,-9.30991 v 21.99222 h -2.92969 V 635.5722 Z m 13.0599,9.30991 h 2.94272 v 12.68231 h -2.94272 v -1.32813 q -1.80989,1.69271 -3.89323,1.69271 -2.63021,0 -4.34896,-1.90104 -1.70574,-1.94011 -1.70574,-4.84376 0,-2.85156 1.70574,-4.75261 1.70573,-1.90104 4.27083,-1.90104 2.21355,0 3.97136,1.82292 z m -6.95313,6.30209 q 0,1.82292 0.97656,2.96876 1.00261,1.15885 2.52605,1.15885 1.6276,0 2.63021,-1.11979 1.00261,-1.15886 1.00261,-2.94271 0,-1.78386 -1.00261,-2.94272 -1.00261,-1.13281 -2.60417,-1.13281 -1.51042,0 -2.52604,1.14584 -1.00261,1.15885 -1.00261,2.86458 z m 16.61462,-3.56771 v 9.94793 h -2.92969 v -9.94793 h -1.25 v -2.73438 h 1.25 v -4.64844 h 2.92969 v 4.64844 h 2.27865 v 2.73438 z m 7.20052,-2.73438 v 12.68231 h -2.9297 v -12.68231 z m -3.3724,-5.27344 q 0,-0.76823 0.55989,-1.32813 0.5599,-0.5599 1.34115,-0.5599 0.79427,0 1.35417,0.5599 0.55989,0.54688 0.55989,1.34115 0,0.79427 -0.55989,1.35417 -0.54688,0.55989 -1.34115,0.55989 -0.79427,0 -1.35417,-0.55989 -0.55989,-0.5599 -0.55989,-1.36719 z m 6.4844,11.52345 q 0,-2.7474 1.96615,-4.67449 1.96615,-1.92708 4.79167,-1.92708 2.83855,0 4.81772,1.9401 1.95312,1.94011 1.95312,4.76564 0,2.85156 -1.96614,4.77865 -1.97917,1.91406 -4.85678,1.91406 -2.85157,0 -4.77865,-1.95312 -1.92709,-1.92709 -1.92709,-4.84376 z m 2.9948,0.0521 q 0,1.90105 1.01562,3.00782 1.04167,1.11979 2.7474,1.11979 1.71875,0 2.7474,-1.10677 1.02865,-1.10677 1.02865,-2.95573 0,-1.84896 -1.02865,-2.95574 -1.04167,-1.11979 -2.7474,-1.11979 -1.67969,0 -2.72136,1.11979 -1.04166,1.1198 -1.04166,2.89063 z m 13.63282,-6.30209 h 2.94271 v 1.17188 q 1.53646,-1.52344 3.46354,-1.52344 2.21355,0 3.45053,1.39323 1.06771,1.1849 1.06771,3.86719 v 7.77345 h -2.94271 v -7.08334 q 0,-1.87501 -0.52084,-2.59115 -0.50781,-0.72917 -1.84896,-0.72917 -1.45833,0 -2.07031,0.96354 -0.59896,0.95052 -0.59896,3.32032 v 6.1198 h -2.94271 z m 26.56604,0 h 2.94271 v 1.17188 q 1.53646,-1.52344 3.46354,-1.52344 2.21355,0 3.45053,1.39323 1.06771,1.1849 1.06771,3.86719 v 7.77345 h -2.94271 v -7.08334 q 0,-1.87501 -0.52084,-2.59115 -0.50781,-0.72917 -1.84896,-0.72917 -1.45833,0 -2.07031,0.96354 -0.59896,0.95052 -0.59896,3.32032 v 6.1198 h -2.94271 z m 26.1719,7.03126 h -9.08856 q 0.11719,1.5625 1.01563,2.48698 0.89844,0.91146 2.30469,0.91146 1.09375,0 1.8099,-0.52083 0.70312,-0.52084 1.60156,-1.92709 l 2.47396,1.38021 q -0.57291,0.97657 -1.21094,1.67969 -0.63802,0.69011 -1.36718,1.14584 -0.72917,0.44271 -1.57553,0.65104 -0.84635,0.20833 -1.83594,0.20833 -2.83854,0 -4.5573,-1.82292 -1.71875,-1.83594 -1.71875,-4.86979 0,-3.00782 1.66667,-4.8698 1.67969,-1.83594 4.45313,-1.83594 2.79948,0 4.42709,1.78385 1.61459,1.77084 1.61459,4.90886 z m -3.00782,-2.39584 q -0.61198,-2.34375 -2.95573,-2.34375 -0.53386,0 -1.00261,0.16927 -0.46875,0.15625 -0.85938,0.46875 -0.3776,0.29948 -0.65104,0.72917 -0.27344,0.42969 -0.41666,0.97656 z m 9.46616,-1.90104 v 9.94793 h -2.92969 v -9.94793 h -1.25 v -2.73438 h 1.25 v -4.64844 h 2.92969 v 4.64844 h 2.27865 v 2.73438 z m 5.85939,-2.73438 3.32032,7.23959 3.58073,-8.39844 3.60678,8.39844 3.28125,-7.23959 h 3.28126 l -6.64064,13.63283 -3.52865,-8.16407 -3.56771,8.16407 -6.62761,-13.63283 z m 17.96875,6.25001 q 0,-2.7474 1.96615,-4.67449 1.96615,-1.92708 4.79167,-1.92708 2.83855,0 4.81771,1.9401 1.95313,1.94011 1.95313,4.76564 0,2.85156 -1.96615,4.77865 -1.97917,1.91406 -4.85677,1.91406 -2.85157,0 -4.77865,-1.95312 -1.92709,-1.92709 -1.92709,-4.84376 z m 2.99479,0.0521 q 0,1.90105 1.01563,3.00782 1.04167,1.11979 2.7474,1.11979 1.71875,0 2.7474,-1.10677 1.02865,-1.10677 1.02865,-2.95573 0,-1.84896 -1.02865,-2.95574 -1.04167,-1.11979 -2.7474,-1.11979 -1.67969,0 -2.72136,1.11979 -1.04167,1.1198 -1.04167,2.89063 z m 13.63285,-6.30209 h 2.9297 v 1.13282 q 0.80729,-0.84636 1.43229,-1.15886 0.63802,-0.32552 1.51042,-0.32552 1.15885,0 2.42188,0.75521 l -1.34115,2.68229 q -0.83334,-0.59896 -1.62761,-0.59896 -2.39583,0 -2.39583,3.6198 v 6.57553 h -2.9297 z m 13.30732,-9.30991 v 13.41148 l 4.12761,-4.10157 h 3.9323 l -5.50782,5.32553 5.91146,7.35678 h -3.80209 l -4.19271,-5.35157 -0.46875,0.46875 v 4.88282 h -2.92969 V 635.5722 Z m -437.30273,38.64329 v 12.6823 h -2.92969 v -12.6823 z m -3.3724,-5.27345 q 0,-0.76823 0.55989,-1.32813 0.5599,-0.55989 1.34115,-0.55989 0.79427,0 1.35417,0.55989 0.5599,0.54688 0.5599,1.34115 0,0.79427 -0.5599,1.35417 -0.54688,0.5599 -1.34115,0.5599 -0.79427,0 -1.35417,-0.5599 -0.55989,-0.5599 -0.55989,-1.36719 z m 7.08334,5.27345 h 2.94271 v 1.17187 q 1.53646,-1.52344 3.46355,-1.52344 2.21354,0 3.45052,1.39323 1.06771,1.1849 1.06771,3.8672 v 7.77344 h -2.94271 v -7.08334 q 0,-1.875 -0.52083,-2.59115 -0.50782,-0.72917 -1.84897,-0.72917 -1.45833,0 -2.07031,0.96355 -0.59896,0.95052 -0.59896,3.32031 v 6.1198 h -2.94271 z m 36.36986,0.54687 v 3.89323 q -1.00261,-1.22395 -1.79688,-1.67968 -0.78125,-0.46876 -1.83594,-0.46876 -1.65365,0 -2.7474,1.15886 -1.09375,1.15886 -1.09375,2.90365 0,1.78386 1.05469,2.92969 1.06771,1.14584 2.72136,1.14584 1.05469,0 1.86198,-0.45573 0.78125,-0.44271 1.83594,-1.71876 v 3.8672 q -1.78386,0.92448 -3.56771,0.92448 -2.94272,0 -4.92189,-1.90105 -1.97916,-1.91406 -1.97916,-4.75261 0,-2.83854 2.00521,-4.79167 2.00521,-1.95313 4.92188,-1.95313 1.875,0 3.54167,0.89844 z m 2.23958,5.70313 q 0,-2.7474 1.96615,-4.67448 1.96615,-1.92709 4.79167,-1.92709 2.83855,0 4.81772,1.94011 1.95313,1.94011 1.95313,4.76563 0,2.85157 -1.96615,4.77865 -1.97917,1.91407 -4.85678,1.91407 -2.85157,0 -4.77865,-1.95313 -1.92709,-1.92709 -1.92709,-4.84376 z m 2.9948,0.0521 q 0,1.90104 1.01562,3.00781 1.04167,1.1198 2.7474,1.1198 1.71876,0 2.7474,-1.10678 1.02865,-1.10677 1.02865,-2.95573 0,-1.84896 -1.02865,-2.95573 -1.04166,-1.1198 -2.7474,-1.1198 -1.67969,0 -2.72135,1.1198 -1.04167,1.11979 -1.04167,2.89063 z m 22.9818,-6.30209 h 2.94271 v 12.6823 h -2.94271 v -1.32812 q -1.8099,1.69271 -3.89323,1.69271 -2.63022,0 -4.34897,-1.90105 -1.70573,-1.9401 -1.70573,-4.84375 0,-2.85157 1.70573,-4.75261 1.70573,-1.90105 4.27084,-1.90105 2.21355,0 3.97136,1.82292 z m -6.95313,6.30209 q 0,1.82292 0.97656,2.96875 1.00261,1.15886 2.52604,1.15886 1.62761,0 2.63022,-1.1198 1.0026,-1.15885 1.0026,-2.94271 0,-1.78386 -1.0026,-2.94271 -1.00261,-1.13282 -2.60417,-1.13282 -1.51042,0 -2.52605,1.14584 -1.0026,1.15886 -1.0026,2.86459 z m 20.96357,-4.14063 -2.42188,1.28906 q -0.57292,-1.17188 -1.41928,-1.17188 -0.40364,0 -0.6901,0.27344 -0.28646,0.26042 -0.28646,0.67709 0,0.72916 1.69271,1.44531 2.33073,1.00261 3.13803,1.84896 0.80729,0.84636 0.80729,2.27865 0,1.83594 -1.35417,3.07292 -1.31511,1.17188 -3.17709,1.17188 -3.1901,0 -4.51823,-3.11199 l 2.5,-1.15885 q 0.52084,0.91146 0.79427,1.15885 0.53386,0.4948 1.27605,0.4948 1.48437,0 1.48437,-1.35417 0,-0.78125 -1.14583,-1.45834 -0.44271,-0.22135 -0.88542,-0.42969 -0.44271,-0.20833 -0.89844,-0.42968 -1.27604,-0.625 -1.79687,-1.25001 -0.66407,-0.79427 -0.66407,-2.04427 0,-1.65365 1.13282,-2.73438 1.15885,-1.08073 2.8125,-1.08073 2.4349,0 3.6198,2.51303 z m 6.47135,0.57291 v 9.94793 h -2.92969 v -9.94793 h -1.25 v -2.73437 h 1.25 v -4.64845 h 2.92969 v 4.64845 h 2.27865 v 2.73437 z m 13.85419,-2.73437 h 2.94271 v 12.6823 h -2.94271 v -1.32812 q -1.8099,1.69271 -3.89323,1.69271 -2.63022,0 -4.34897,-1.90105 -1.70573,-1.9401 -1.70573,-4.84375 0,-2.85157 1.70573,-4.75261 1.70573,-1.90105 4.27084,-1.90105 2.21354,0 3.97136,1.82292 z m -6.95313,6.30209 q 0,1.82292 0.97656,2.96875 1.0026,1.15886 2.52604,1.15886 1.62761,0 2.63022,-1.1198 1.0026,-1.15885 1.0026,-2.94271 0,-1.78386 -1.0026,-2.94271 -1.00261,-1.13282 -2.60417,-1.13282 -1.51042,0 -2.52605,1.14584 -1.0026,1.15886 -1.0026,2.86459 z m 16.52345,-15.612 v 21.99221 h -2.92969 v -21.99221 z m 31.00527,2.96875 v 3.59376 q -2.63021,-2.20053 -5.44272,-2.20053 -3.09896,0 -5.22136,2.22657 -2.13542,2.21354 -2.13542,5.41667 0,3.16407 2.13542,5.33855 2.13542,2.17448 5.23438,2.17448 1.60157,0 2.72136,-0.52083 0.625,-0.26042 1.28907,-0.70313 0.67708,-0.44271 1.41927,-1.06771 v 3.65886 q -2.60417,1.47136 -5.46876,1.47136 -4.3099,0 -7.35678,-3.00782 -3.03386,-3.03386 -3.03386,-7.31772 0,-3.84115 2.53907,-6.84896 3.125,-3.6849 8.08595,-3.6849 2.70833,0 5.23438,1.47135 z m 3.26823,-2.96875 h 2.9297 v 10.36459 q 1.5625,-1.40625 3.45052,-1.40625 2.14844,0 3.4375,1.39323 1.09376,1.21094 1.09376,3.8672 v 7.77344 h -2.9297 v -7.50001 q 0,-1.52344 -0.54687,-2.20052 -0.53386,-0.69011 -1.73177,-0.69011 -1.53646,0 -2.16146,0.95053 -0.61198,0.96354 -0.61198,3.30729 v 6.13282 h -2.9297 z m 23.9714,9.30991 h 2.94271 v 12.6823 h -2.94271 v -1.32812 q -1.8099,1.69271 -3.89324,1.69271 -2.63021,0 -4.34896,-1.90105 -1.70573,-1.9401 -1.70573,-4.84375 0,-2.85157 1.70573,-4.75261 1.70573,-1.90105 4.27084,-1.90105 2.21354,0 3.97136,1.82292 z m -6.95314,6.30209 q 0,1.82292 0.97657,2.96875 1.0026,1.15886 2.52604,1.15886 1.62761,0 2.63021,-1.1198 1.00261,-1.15885 1.00261,-2.94271 0,-1.78386 -1.00261,-2.94271 -1.0026,-1.13282 -2.60417,-1.13282 -1.51042,0 -2.52604,1.14584 -1.00261,1.15886 -1.00261,2.86459 z m 12.9948,-0.0521 q 0,-2.7474 1.96615,-4.67448 1.96615,-1.92709 4.79167,-1.92709 2.83855,0 4.81772,1.94011 1.95312,1.94011 1.95312,4.76563 0,2.85157 -1.96615,4.77865 -1.97916,1.91407 -4.85677,1.91407 -2.85157,0 -4.77865,-1.95313 -1.92709,-1.92709 -1.92709,-4.84376 z m 2.9948,0.0521 q 0,1.90104 1.01562,3.00781 1.04167,1.1198 2.7474,1.1198 1.71875,0 2.7474,-1.10678 1.02865,-1.10677 1.02865,-2.95573 0,-1.84896 -1.02865,-2.95573 -1.04167,-1.1198 -2.7474,-1.1198 -1.67969,0 -2.72136,1.1198 -1.04166,1.11979 -1.04166,2.89063 z m 13.63283,-6.30209 h 2.94271 v 1.17187 q 1.53646,-1.52344 3.46355,-1.52344 2.21354,0 3.45052,1.39323 1.06771,1.1849 1.06771,3.8672 v 7.77344 h -2.94271 v -7.08334 q 0,-1.875 -0.52083,-2.59115 -0.50782,-0.72917 -1.84896,-0.72917 -1.45834,0 -2.07032,0.96355 -0.59896,0.95052 -0.59896,3.32031 v 6.1198 h -2.94271 z m 17.55211,0 v 12.6823 h -2.92969 v -12.6823 z m -3.3724,-5.27345 q 0,-0.76823 0.5599,-1.32813 0.5599,-0.55989 1.34115,-0.55989 0.79427,0 1.35416,0.55989 0.5599,0.54688 0.5599,1.34115 0,0.79427 -0.5599,1.35417 -0.54687,0.5599 -1.34114,0.5599 -0.79427,0 -1.35417,-0.5599 -0.5599,-0.5599 -0.5599,-1.36719 z m 16.43231,5.27345 h 2.94271 v 12.6823 h -2.94271 v -1.32812 q -1.8099,1.69271 -3.89324,1.69271 -2.63021,0 -4.34896,-1.90105 -1.70573,-1.9401 -1.70573,-4.84375 0,-2.85157 1.70573,-4.75261 1.70573,-1.90105 4.27084,-1.90105 2.21354,0 3.97136,1.82292 z m -6.95314,6.30209 q 0,1.82292 0.97657,2.96875 1.0026,1.15886 2.52604,1.15886 1.62761,0 2.63021,-1.1198 1.00261,-1.15885 1.00261,-2.94271 0,-1.78386 -1.00261,-2.94271 -1.0026,-1.13282 -2.60417,-1.13282 -1.51042,0 -2.52604,1.14584 -1.00261,1.15886 -1.00261,2.86459 z m 15.40367,2.61719 2.60417,1.01562 -3.71094,7.43491 -1.97917,-0.82031 z m 18.85681,3.76302 v -21.47138 l 14.66148,15.33856 V 666.7936 h 3.03386 v 21.32815 l -14.66148,-15.2995 v 14.07554 z m 21.53651,-6.4323 q 0,-2.7474 1.96614,-4.67448 1.96615,-1.92709 4.79168,-1.92709 2.83854,0 4.81771,1.94011 1.95313,1.94011 1.95313,4.76563 0,2.85157 -1.96615,4.77865 -1.97917,1.91407 -4.85678,1.91407 -2.85156,0 -4.77865,-1.95313 -1.92708,-1.92709 -1.92708,-4.84376 z m 2.99479,0.0521 q 0,1.90104 1.01563,3.00781 1.04167,1.1198 2.7474,1.1198 1.71875,0 2.7474,-1.10678 1.02864,-1.10677 1.02864,-2.95573 0,-1.84896 -1.02864,-2.95573 -1.04167,-1.1198 -2.7474,-1.1198 -1.67969,0 -2.72136,1.1198 -1.04167,1.11979 -1.04167,2.89063 z m 13.63282,-6.30209 h 2.92969 v 1.13281 q 0.80729,-0.84636 1.4323,-1.15886 0.63802,-0.32552 1.51041,-0.32552 1.15886,0 2.42188,0.75521 l -1.34115,2.6823 q -0.83333,-0.59896 -1.6276,-0.59896 -2.39584,0 -2.39584,3.61979 v 6.57553 h -2.92969 z m 13.95834,2.73437 v 9.94793 h -2.92969 v -9.94793 h -1.25 v -2.73437 h 1.25 v -4.64845 h 2.92969 v 4.64845 h 2.27865 v 2.73437 z m 4.80469,-12.04428 h 2.92969 v 10.36459 q 1.5625,-1.40625 3.45053,-1.40625 2.14844,0 3.4375,1.39323 1.09375,1.21094 1.09375,3.8672 v 7.77344 h -2.92969 v -7.50001 q 0,-1.52344 -0.54687,-2.20052 -0.53386,-0.69011 -1.73178,-0.69011 -1.53646,0 -2.16146,0.95053 -0.61198,0.96354 -0.61198,3.30729 v 6.13282 h -2.92969 z m 26.17193,16.34116 h -9.08855 q 0.11719,1.56251 1.01563,2.48699 0.89843,0.91146 2.30469,0.91146 1.09375,0 1.80989,-0.52084 0.70313,-0.52083 1.60157,-1.92708 l 2.47396,1.38021 q -0.57292,0.97656 -1.21094,1.67969 -0.63802,0.6901 -1.36719,1.14583 -0.72917,0.44271 -1.57552,0.65104 -0.84636,0.20834 -1.83594,0.20834 -2.83855,0 -4.5573,-1.82292 -1.71875,-1.83594 -1.71875,-4.8698 0,-3.00782 1.66667,-4.8698 1.67969,-1.83594 4.45313,-1.83594 2.79948,0 4.42709,1.78386 1.61458,1.77083 1.61458,4.90886 z m -3.00781,-2.39583 q -0.61198,-2.34376 -2.95574,-2.34376 -0.53385,0 -1.0026,0.16928 -0.46875,0.15625 -0.85938,0.46875 -0.3776,0.29948 -0.65104,0.72916 -0.27344,0.42969 -0.41667,0.97657 z m 6.21091,-4.63542 h 2.92969 v 1.13281 q 0.8073,-0.84636 1.4323,-1.15886 0.63802,-0.32552 1.51042,-0.32552 1.15885,0 2.42187,0.75521 l -1.34114,2.6823 q -0.83334,-0.59896 -1.62761,-0.59896 -2.39584,0 -2.39584,3.61979 v 6.57553 h -2.92969 z m 10.37763,0 h 2.94271 v 1.17187 q 1.53646,-1.52344 3.46354,-1.52344 2.21355,0 3.45053,1.39323 1.06771,1.1849 1.06771,3.8672 v 7.77344 h -2.94271 v -7.08334 q 0,-1.875 -0.52084,-2.59115 -0.50781,-0.72917 -1.84896,-0.72917 -1.45833,0 -2.07031,0.96355 -0.59896,0.95052 -0.59896,3.32031 v 6.1198 h -2.94271 z m 38.15372,-4.57032 h -8.05991 v 4.83073 h 7.82553 v 2.85157 h -7.82553 v 6.71876 h 8.05991 v 2.85156 H 513.17048 V 666.7936 h 11.09377 z m 6.35418,24.15367 h -2.92969 v -19.58335 h 2.92969 v 1.38021 q 1.73178,-1.73178 3.9323,-1.73178 2.61719,0 4.3099,1.92709 1.71875,1.91406 1.71875,4.83073 0,2.85157 -1.70573,4.75261 -1.69271,1.88803 -4.27084,1.88803 -2.22656,0 -3.98438,-1.78386 z m 6.96616,-13.16408 q 0,-1.82291 -0.98959,-2.96875 -1.0026,-1.15886 -2.52604,-1.15886 -1.61459,0 -2.61719,1.1198 -1.00261,1.11979 -1.00261,2.94271 0,1.78386 1.00261,2.94271 0.98958,1.13282 2.60417,1.13282 1.52344,0 2.51302,-1.14584 1.01563,-1.14583 1.01563,-2.86459 z m 9.02344,-6.41927 v 12.6823 h -2.92969 v -12.6823 z m -3.3724,-5.27345 q 0,-0.76823 0.55989,-1.32813 0.5599,-0.55989 1.34115,-0.55989 0.79427,0 1.35417,0.55989 0.5599,0.54688 0.5599,1.34115 0,0.79427 -0.5599,1.35417 -0.54688,0.5599 -1.34115,0.5599 -0.79427,0 -1.35417,-0.5599 -0.55989,-0.5599 -0.55989,-1.36719 z m 7.08333,5.27345 h 2.92969 v 1.13281 q 0.8073,-0.84636 1.4323,-1.15886 0.63802,-0.32552 1.51042,-0.32552 1.15885,0 2.42187,0.75521 l -1.34114,2.6823 q -0.83334,-0.59896 -1.62761,-0.59896 -2.39584,0 -2.39584,3.61979 v 6.57553 h -2.92969 z m 13.30732,0 v 7.27865 q 0,3.15105 2.48698,3.15105 2.48698,0 2.48698,-3.15105 v -7.27865 h 2.92969 v 7.34375 q 0,1.52344 -0.3776,2.63022 -0.36459,0.98958 -1.26302,1.78385 -1.48438,1.28907 -3.77605,1.28907 -2.27865,0 -3.76303,-1.28907 -0.91146,-0.79427 -1.28906,-1.78385 -0.36458,-0.88542 -0.36458,-2.63022 v -7.34375 z m 18.97139,2.16146 -2.42188,1.28906 q -0.57292,-1.17188 -1.41927,-1.17188 -0.40365,0 -0.69011,0.27344 -0.28646,0.26042 -0.28646,0.67709 0,0.72916 1.69271,1.44531 2.33074,1.00261 3.13803,1.84896 0.80729,0.84636 0.80729,2.27865 0,1.83594 -1.35417,3.07292 -1.3151,1.17188 -3.17708,1.17188 -3.19011,0 -4.51824,-3.11199 l 2.5,-1.15885 q 0.52084,0.91146 0.79428,1.15885 0.53385,0.4948 1.27604,0.4948 1.48438,0 1.48438,-1.35417 0,-0.78125 -1.14584,-1.45834 -0.44271,-0.22135 -0.88542,-0.42969 -0.44271,-0.20833 -0.89844,-0.42968 -1.27604,-0.625 -1.79687,-1.25001 -0.66407,-0.79427 -0.66407,-2.04427 0,-1.65365 1.13282,-2.73438 1.15885,-1.08073 2.8125,-1.08073 2.4349,0 3.6198,2.51303 z m -443.73503,17.64065 2.70833,1.04167 q -1.41927,3.39844 -1.99219,6.27604 -0.28646,1.45834 -0.42968,3.07293 -0.14323,1.60156 -0.14323,3.5026 0,1.91407 0.14323,3.52865 0.14322,1.60157 0.42968,3.0599 0.5599,2.86459 1.99219,6.26303 l -2.70833,1.04167 q -2.83855,-5.95053 -2.83855,-13.89325 0,-7.94271 2.83855,-13.89324 z m 18.737,17.33075 h -8.60678 l -2.23959,4.88282 h -3.26823 l 9.94793,-21.36722 9.59636,21.36722 h -3.32031 z m -1.23698,-2.85157 -2.98178,-6.83594 -3.125,6.83594 z m 11.54949,-14.25783 v 21.99222 h -2.92969 v -21.99222 z m 6.64063,0 v 10.78127 q 1.75782,-1.82292 3.98438,-1.82292 2.56511,0 4.27084,1.91406 1.70573,1.90105 1.70573,4.73959 0,2.92969 -1.71875,4.84376 -1.70573,1.90104 -4.3099,1.90104 -2.20052,0 -3.9323,-1.69271 v 1.32813 h -2.92969 v -21.99222 z m 6.96616,15.74221 q 0,-1.82292 -0.98959,-2.96875 -1.0026,-1.17188 -2.51302,-1.17188 -1.61459,0 -2.63021,1.13281 -1.00261,1.1198 -1.00261,2.91667 0,1.84896 0.98959,2.95574 0.98958,1.13281 2.60417,1.13281 1.52344,0 2.52604,-1.13281 1.01563,-1.14584 1.01563,-2.86459 z m 15.44273,-6.4323 h 2.94271 v 12.68231 h -2.94271 v -1.32813 q -1.8099,1.69271 -3.89324,1.69271 -2.63021,0 -4.34896,-1.90104 -1.70573,-1.94011 -1.70573,-4.84376 0,-2.85157 1.70573,-4.75261 1.70573,-1.90104 4.27084,-1.90104 2.21354,0 3.97136,1.82292 z m -6.95314,6.30209 q 0,1.82292 0.97657,2.96875 1.0026,1.15886 2.52604,1.15886 1.62761,0 2.63021,-1.11979 1.00261,-1.15886 1.00261,-2.94272 0,-1.78385 -1.00261,-2.94271 -1.0026,-1.13281 -2.60417,-1.13281 -1.51041,0 -2.52604,1.14583 -1.00261,1.15886 -1.00261,2.86459 z m 13.59377,-6.30209 h 2.94271 v 1.17188 q 1.53646,-1.52344 3.46355,-1.52344 2.21354,0 3.45053,1.39323 1.06771,1.18489 1.06771,3.86719 v 7.77345 h -2.94272 v -7.08335 q 0,-1.875 -0.52083,-2.59114 -0.50781,-0.72917 -1.84896,-0.72917 -1.45834,0 -2.07032,0.96354 -0.59896,0.95052 -0.59896,3.32032 v 6.1198 h -2.94271 z m 17.55211,0 v 12.68231 h -2.92969 v -12.68231 z m -3.3724,-5.27345 q 0,-0.76823 0.55989,-1.32812 0.5599,-0.5599 1.34115,-0.5599 0.79427,0 1.35417,0.5599 0.5599,0.54687 0.5599,1.34115 0,0.79427 -0.5599,1.35416 -0.54688,0.5599 -1.34115,0.5599 -0.79427,0 -1.35417,-0.5599 -0.55989,-0.55989 -0.55989,-1.36719 z m 16.43231,5.27345 h 2.94271 v 12.68231 h -2.94271 v -1.32813 q -1.8099,1.69271 -3.89324,1.69271 -2.63021,0 -4.34896,-1.90104 -1.70573,-1.94011 -1.70573,-4.84376 0,-2.85157 1.70573,-4.75261 1.70573,-1.90104 4.27084,-1.90104 2.21354,0 3.97136,1.82292 z m -6.95314,6.30209 q 0,1.82292 0.97657,2.96875 1.0026,1.15886 2.52604,1.15886 1.62761,0 2.63022,-1.11979 1.0026,-1.15886 1.0026,-2.94272 0,-1.78385 -1.0026,-2.94271 -1.00261,-1.13281 -2.60417,-1.13281 -1.51042,0 -2.52605,1.14583 -1.00261,1.15886 -1.00261,2.86459 z m 16.26305,11.95314 -2.70834,-1.04167 q 1.4323,-3.39844 1.99219,-6.26303 0.58594,-2.86458 0.58594,-6.58855 0,-3.69792 -0.58594,-6.57553 -0.57291,-2.8776 -1.99219,-6.27604 l 2.70834,-1.04167 q 2.83855,5.95053 2.83855,13.89324 0,7.94272 -2.83855,13.89325 z m 20.08025,-27.56514 v 10.78127 q 1.75782,-1.82292 3.98438,-1.82292 2.56511,0 4.27084,1.91406 1.70573,1.90105 1.70573,4.73959 0,2.92969 -1.71875,4.84376 -1.70573,1.90104 -4.3099,1.90104 -2.20053,0 -3.9323,-1.69271 v 1.32813 h -2.92969 v -21.99222 z m 6.96616,15.74221 q 0,-1.82292 -0.98959,-2.96875 -1.0026,-1.17188 -2.51302,-1.17188 -1.61459,0 -2.63022,1.13281 -1.0026,1.1198 -1.0026,2.91667 0,1.84896 0.98958,2.95574 0.98959,1.13281 2.60417,1.13281 1.52344,0 2.52605,-1.13281 1.01563,-1.14584 1.01563,-2.86459 z m 17.64324,0.59896 h -9.08855 q 0.11719,1.5625 1.01563,2.48698 0.89844,0.91146 2.30469,0.91146 1.09375,0 1.8099,-0.52083 0.70312,-0.52084 1.60156,-1.92709 l 2.47396,1.38021 q -0.57292,0.97656 -1.21094,1.67969 -0.63802,0.6901 -1.36719,1.14583 -0.72916,0.44271 -1.57552,0.65105 -0.84635,0.20833 -1.83594,0.20833 -2.83854,0 -4.5573,-1.82292 -1.71875,-1.83594 -1.71875,-4.8698 0,-3.00781 1.66667,-4.86979 1.67969,-1.83594 4.45313,-1.83594 2.79948,0 4.42709,1.78385 1.61458,1.77084 1.61458,4.90886 z m -3.00781,-2.39584 q -0.61198,-2.34375 -2.95574,-2.34375 -0.53385,0 -1.0026,0.16927 -0.46875,0.15625 -0.85938,0.46875 -0.3776,0.29948 -0.65104,0.72917 -0.27344,0.42969 -0.41667,0.97656 z m 9.46616,-1.90104 v 9.94793 h -2.92969 v -9.94793 h -1.25001 v -2.73438 h 1.25001 v -4.64844 h 2.92969 v 4.64844 h 2.27865 v 2.73438 z m 5.85938,-2.73438 3.32031,7.23959 3.58074,-8.39845 3.60677,8.39845 3.28126,-7.23959 h 3.28125 l -6.64063,13.63283 -3.52865,-8.16407 -3.56772,8.16407 -6.62761,-13.63283 z m 30.19535,7.03126 h -9.08855 q 0.11719,1.5625 1.01562,2.48698 0.89844,0.91146 2.30469,0.91146 1.09376,0 1.8099,-0.52083 0.70313,-0.52084 1.60157,-1.92709 l 2.47396,1.38021 q -0.57292,0.97656 -1.21094,1.67969 -0.63802,0.6901 -1.36719,1.14583 -0.72917,0.44271 -1.57552,0.65105 -0.84636,0.20833 -1.83594,0.20833 -2.83855,0 -4.5573,-1.82292 -1.71875,-1.83594 -1.71875,-4.8698 0,-3.00781 1.66667,-4.86979 1.67969,-1.83594 4.45313,-1.83594 2.79948,0 4.42709,1.78385 1.61458,1.77084 1.61458,4.90886 z m -3.00782,-2.39584 q -0.61198,-2.34375 -2.95573,-2.34375 -0.53385,0 -1.0026,0.16927 -0.46875,0.15625 -0.85938,0.46875 -0.3776,0.29948 -0.65104,0.72917 -0.27344,0.42969 -0.41667,0.97656 z m 17.76045,2.39584 h -9.08856 q 0.11719,1.5625 1.01563,2.48698 0.89844,0.91146 2.30469,0.91146 1.09375,0 1.8099,-0.52083 0.70312,-0.52084 1.60156,-1.92709 l 2.47396,1.38021 q -0.57291,0.97656 -1.21094,1.67969 -0.63802,0.6901 -1.36719,1.14583 -0.72916,0.44271 -1.57552,0.65105 -0.84635,0.20833 -1.83594,0.20833 -2.83854,0 -4.5573,-1.82292 -1.71875,-1.83594 -1.71875,-4.8698 0,-3.00781 1.66667,-4.86979 1.67969,-1.83594 4.45313,-1.83594 2.79948,0 4.42709,1.78385 1.61459,1.77084 1.61459,4.90886 z m -3.00782,-2.39584 q -0.61198,-2.34375 -2.95573,-2.34375 -0.53386,0 -1.00261,0.16927 -0.46875,0.15625 -0.85938,0.46875 -0.3776,0.29948 -0.65104,0.72917 -0.27344,0.42969 -0.41666,0.97656 z m 6.21095,-4.63542 h 2.94271 v 1.17188 q 1.53646,-1.52344 3.46354,-1.52344 2.21355,0 3.45053,1.39323 1.06771,1.18489 1.06771,3.86719 v 7.77345 h -2.94271 v -7.08335 q 0,-1.875 -0.52084,-2.59114 -0.50781,-0.72917 -1.84896,-0.72917 -1.45833,0 -2.07031,0.96354 -0.59896,0.95052 -0.59896,3.32032 v 6.1198 h -2.94271 z m 28.27036,-7.42189 v 20.1042 h -3.03386 v -20.1042 z m 4.27083,7.42189 h 2.9297 v 1.13281 q 0.80729,-0.84635 1.43229,-1.15885 0.63802,-0.32552 1.51042,-0.32552 1.15885,0 2.42188,0.75521 l -1.34115,2.68229 q -0.83334,-0.59896 -1.62761,-0.59896 -2.39583,0 -2.39583,3.6198 v 6.57553 h -2.9297 z m 9.14064,6.25001 q 0,-2.7474 1.96615,-4.67449 1.96615,-1.92708 4.79167,-1.92708 2.83855,0 4.81771,1.9401 1.95313,1.94011 1.95313,4.76563 0,2.85157 -1.96615,4.77866 -1.97917,1.91406 -4.85677,1.91406 -2.85157,0 -4.77865,-1.95313 -1.92709,-1.92708 -1.92709,-4.84375 z m 2.99479,0.0521 q 0,1.90104 1.01563,3.00782 1.04167,1.11979 2.7474,1.11979 1.71875,0 2.7474,-1.10677 1.02865,-1.10677 1.02865,-2.95574 0,-1.84896 -1.02865,-2.95573 -1.04167,-1.11979 -2.7474,-1.11979 -1.67969,0 -2.72136,1.11979 -1.04167,1.11979 -1.04167,2.89063 z m 13.63284,-6.30209 h 2.94271 v 1.17188 q 1.53646,-1.52344 3.46355,-1.52344 2.21354,0 3.45052,1.39323 1.06771,1.18489 1.06771,3.86719 v 7.77345 h -2.94271 v -7.08335 q 0,-1.875 -0.52083,-2.59114 -0.50782,-0.72917 -1.84896,-0.72917 -1.45834,0 -2.07032,0.96354 -0.59896,0.95052 -0.59896,3.32032 v 6.1198 h -2.94271 z m 37.04641,7.79949 h -8.60678 l -2.23959,4.88282 h -3.26823 l 9.94793,-21.36722 9.59637,21.36722 h -3.32032 z m -1.23698,-2.85157 -2.98177,-6.83594 -3.12501,6.83594 z m 20.88544,7.43491 q 0,0.89844 -0.0651,1.57552 -0.0521,0.69011 -0.15625,1.21094 -0.3125,1.43229 -1.22396,2.46094 -1.71876,1.97917 -4.72657,1.97917 -2.53907,0 -4.1797,-1.36719 -1.69271,-1.40625 -1.95312,-3.89323 h 2.94271 q 0.16927,0.9375 0.5599,1.44531 0.91145,1.1849 2.65625,1.1849 3.21615,0 3.21615,-3.94532 v -1.77084 q -1.7448,1.78386 -4.02344,1.78386 -2.59115,0 -4.2448,-1.875 -1.66667,-1.90105 -1.66667,-4.75261 0,-2.77344 1.54948,-4.71355 1.66667,-2.05729 4.40105,-2.05729 2.39584,0 3.98438,1.78385 v -1.43229 h 2.92969 z m -2.8125,-6.01564 q 0,-1.84896 -0.98959,-2.95573 -1.0026,-1.13281 -2.56511,-1.13281 -1.66666,0 -2.63021,1.23698 -0.87239,1.10677 -0.87239,2.86459 0,1.73177 0.87239,2.83854 0.95052,1.21094 2.63021,1.21094 1.67969,0 2.65626,-1.22396 0.89844,-1.10677 0.89844,-2.83855 z m 18.05992,0.66407 h -9.08856 q 0.11719,1.5625 1.01563,2.48698 0.89844,0.91146 2.30469,0.91146 1.09375,0 1.8099,-0.52083 0.70312,-0.52084 1.60156,-1.92709 l 2.47396,1.38021 q -0.57291,0.97656 -1.21094,1.67969 -0.63802,0.6901 -1.36719,1.14583 -0.72916,0.44271 -1.57552,0.65105 -0.84635,0.20833 -1.83594,0.20833 -2.83854,0 -4.5573,-1.82292 -1.71875,-1.83594 -1.71875,-4.8698 0,-3.00781 1.66667,-4.86979 1.67969,-1.83594 4.45313,-1.83594 2.79948,0 4.42709,1.78385 1.61459,1.77084 1.61459,4.90886 z m -3.00782,-2.39584 q -0.61198,-2.34375 -2.95573,-2.34375 -0.53386,0 -1.00261,0.16927 -0.46875,0.15625 -0.85938,0.46875 -0.3776,0.29948 -0.65104,0.72917 -0.27344,0.42969 -0.41667,0.97656 z m 25.61412,-4.63542 h 2.94271 v 12.68231 h -2.94271 v -1.32813 q -1.8099,1.69271 -3.89324,1.69271 -2.63021,0 -4.34896,-1.90104 -1.70573,-1.94011 -1.70573,-4.84376 0,-2.85157 1.70573,-4.75261 1.70573,-1.90104 4.27084,-1.90104 2.21354,0 3.97136,1.82292 z m -6.95314,6.30209 q 0,1.82292 0.97657,2.96875 1.0026,1.15886 2.52604,1.15886 1.62761,0 2.63021,-1.11979 1.00261,-1.15886 1.00261,-2.94272 0,-1.78385 -1.00261,-2.94271 -1.0026,-1.13281 -2.60417,-1.13281 -1.51042,0 -2.52604,1.14583 -1.00261,1.15886 -1.00261,2.86459 z m 13.59376,-6.30209 h 2.94271 v 1.17188 q 1.53646,-1.52344 3.46355,-1.52344 2.21354,0 3.45052,1.39323 1.06771,1.18489 1.06771,3.86719 v 7.77345 h -2.94271 v -7.08335 q 0,-1.875 -0.52083,-2.59114 -0.50782,-0.72917 -1.84897,-0.72917 -1.45833,0 -2.07031,0.96354 -0.59896,0.95052 -0.59896,3.32032 v 6.1198 h -2.94271 z m 23.97141,-9.30991 h 2.94271 v 21.99222 h -2.94271 v -1.32813 q -1.73178,1.69271 -3.91928,1.69271 -2.60417,0 -4.32292,-1.90104 -1.70573,-1.94011 -1.70573,-4.84376 0,-2.83854 1.70573,-4.73959 1.69271,-1.91406 4.25782,-1.91406 2.22656,0 3.98438,1.82292 z m -6.95314,15.612 q 0,1.82292 0.97657,2.96875 1.0026,1.15886 2.52604,1.15886 1.62761,0 2.63021,-1.11979 1.00261,-1.15886 1.00261,-2.94272 0,-1.78385 -1.00261,-2.94271 -1.0026,-1.13281 -2.60417,-1.13281 -1.51042,0 -2.52604,1.14583 -1.00261,1.15886 -1.00261,2.86459 z m 26.6688,-3.56771 v 9.94793 h -2.9297 v -9.94793 h -1.25 v -2.73438 h 1.25 v -4.64844 h 2.9297 v 4.64844 h 2.27864 v 2.73438 z m 4.80469,-12.04429 h 2.92969 v 10.3646 q 1.5625,-1.40625 3.45053,-1.40625 2.14844,0 3.4375,1.39323 1.09375,1.21094 1.09375,3.86719 v 7.77345 h -2.92969 v -7.50001 q 0,-1.52344 -0.54688,-2.20053 -0.53385,-0.6901 -1.73177,-0.6901 -1.53646,0 -2.16146,0.95052 -0.61198,0.96354 -0.61198,3.3073 v 6.13282 h -2.92969 z m 26.1719,16.34117 h -9.08855 q 0.11718,1.5625 1.01562,2.48698 0.89844,0.91146 2.30469,0.91146 1.09375,0 1.8099,-0.52083 0.70313,-0.52084 1.60156,-1.92709 l 2.47397,1.38021 q -0.57292,0.97656 -1.21094,1.67969 -0.63802,0.6901 -1.36719,1.14583 -0.72917,0.44271 -1.57552,0.65105 -0.84636,0.20833 -1.83594,0.20833 -2.83855,0 -4.5573,-1.82292 -1.71875,-1.83594 -1.71875,-4.8698 0,-3.00781 1.66666,-4.86979 1.67969,-1.83594 4.45314,-1.83594 2.79948,0 4.42708,1.78385 1.61459,1.77084 1.61459,4.90886 z m -3.00782,-2.39584 q -0.61198,-2.34375 -2.95573,-2.34375 -0.53386,0 -1.00261,0.16927 -0.46875,0.15625 -0.85937,0.46875 -0.37761,0.29948 -0.65104,0.72917 -0.27344,0.42969 -0.41667,0.97656 z m -444.51626,37.38026 4.23177,-21.61461 6.90105,15.62502 7.14845,-15.62502 3.80209,21.61461 h -3.11199 l -1.9401,-12.13543 -5.95053,13.05991 -5.78126,-13.07293 -2.16146,12.14845 z m 37.33077,-5.65105 h -9.08855 q 0.11719,1.5625 1.01563,2.48698 0.89843,0.91146 2.30469,0.91146 1.09375,0 1.80989,-0.52083 0.70313,-0.52083 1.60157,-1.92709 l 2.47396,1.38021 q -0.57292,0.97657 -1.21094,1.67969 -0.63802,0.69011 -1.36719,1.14584 -0.72917,0.44271 -1.57552,0.65104 -0.84636,0.20833 -1.83594,0.20833 -2.83855,0 -4.5573,-1.82291 -1.71875,-1.83594 -1.71875,-4.8698 0,-3.00782 1.66667,-4.8698 1.67969,-1.83594 4.45313,-1.83594 2.79948,0 4.42709,1.78386 1.61458,1.77083 1.61458,4.90886 z m -3.00781,-2.39583 q -0.61198,-2.34376 -2.95574,-2.34376 -0.53385,0 -1.0026,0.16927 -0.46875,0.15625 -0.85938,0.46875 -0.3776,0.29948 -0.65104,0.72917 -0.27344,0.42969 -0.41667,0.97657 z m 15.55991,-13.94533 h 2.94272 v 21.99221 h -2.94272 v -1.32813 q -1.73177,1.69271 -3.91927,1.69271 -2.60417,0 -4.32292,-1.90104 -1.70574,-1.94011 -1.70574,-4.84376 0,-2.83854 1.70574,-4.73958 1.69271,-1.91407 4.25781,-1.91407 2.22657,0 3.98438,1.82292 z m -6.95313,15.61199 q 0,1.82292 0.97656,2.96876 1.00261,1.15885 2.52605,1.15885 1.6276,0 2.63021,-1.11979 1.00261,-1.15885 1.00261,-2.94271 0,-1.78386 -1.00261,-2.94271 -1.00261,-1.13282 -2.60417,-1.13282 -1.51042,0 -2.52604,1.14584 -1.00261,1.15885 -1.00261,2.86458 z m 16.52346,-6.30209 v 12.68231 h -2.9297 v -12.68231 z m -3.3724,-5.27344 q 0,-0.76823 0.55989,-1.32813 0.5599,-0.55989 1.34115,-0.55989 0.79427,0 1.35417,0.55989 0.55989,0.54688 0.55989,1.34115 0,0.79427 -0.55989,1.35417 -0.54688,0.55989 -1.34115,0.55989 -0.79427,0 -1.35417,-0.55989 -0.55989,-0.5599 -0.55989,-1.36719 z m 18.63283,12.3047 h -9.08855 q 0.11719,1.5625 1.01562,2.48698 0.89844,0.91146 2.30469,0.91146 1.09376,0 1.8099,-0.52083 0.70313,-0.52083 1.60157,-1.92709 l 2.47396,1.38021 q -0.57292,0.97657 -1.21094,1.67969 -0.63802,0.69011 -1.36719,1.14584 -0.72917,0.44271 -1.57552,0.65104 -0.84636,0.20833 -1.83594,0.20833 -2.83855,0 -4.5573,-1.82291 -1.71875,-1.83594 -1.71875,-4.8698 0,-3.00782 1.66667,-4.8698 1.67969,-1.83594 4.45313,-1.83594 2.79948,0 4.42709,1.78386 1.61458,1.77083 1.61458,4.90886 z m -3.00782,-2.39583 q -0.61198,-2.34376 -2.95573,-2.34376 -0.53385,0 -1.0026,0.16927 -0.46875,0.15625 -0.85938,0.46875 -0.3776,0.29948 -0.65104,0.72917 -0.27344,0.42969 -0.41667,0.97657 z m 7.33075,-4.63543 3.28125,7.12241 3.26824,-7.12241 h 3.29427 l -6.58855,13.55471 -6.53647,-13.55471 z m 20.71616,0 h 2.94272 v 12.68231 h -2.94272 v -1.32813 q -1.80989,1.69271 -3.89323,1.69271 -2.63021,0 -4.34896,-1.90104 -1.70574,-1.94011 -1.70574,-4.84376 0,-2.85156 1.70574,-4.75261 1.70573,-1.90104 4.27083,-1.90104 2.21355,0 3.97136,1.82292 z m -6.95313,6.30209 q 0,1.82292 0.97656,2.96876 1.00261,1.15885 2.52605,1.15885 1.6276,0 2.63021,-1.11979 1.00261,-1.15885 1.00261,-2.94271 0,-1.78386 -1.00261,-2.94271 -1.00261,-1.13282 -2.60417,-1.13282 -1.51042,0 -2.52604,1.14584 -1.00261,1.15885 -1.00261,2.86458 z m 16.52346,-15.61199 v 21.99221 h -2.92969 v -21.99221 z m 14.86982,28.89326 h -2.9297 v -19.58336 h 2.9297 v 1.38021 q 1.73177,-1.73177 3.93229,-1.73177 2.61719,0 4.3099,1.92709 1.71876,1.91406 1.71876,4.83073 0,2.85157 -1.70574,4.75261 -1.69271,1.88802 -4.27083,1.88802 -2.22657,0 -3.98438,-1.78385 z m 6.96615,-13.16408 q 0,-1.82292 -0.98958,-2.96875 -1.00261,-1.15886 -2.52605,-1.15886 -1.61458,0 -2.61719,1.1198 -1.00261,1.11979 -1.00261,2.94271 0,1.78385 1.00261,2.94271 0.98958,1.13281 2.60417,1.13281 1.52344,0 2.51302,-1.14583 1.01563,-1.14584 1.01563,-2.86459 z m 17.64326,0.61198 h -9.08856 q 0.11719,1.5625 1.01563,2.48698 0.89844,0.91146 2.30469,0.91146 1.09375,0 1.8099,-0.52083 0.70312,-0.52083 1.60156,-1.92709 l 2.47396,1.38021 q -0.57291,0.97657 -1.21093,1.67969 -0.63803,0.69011 -1.36719,1.14584 -0.72917,0.44271 -1.57553,0.65104 -0.84635,0.20833 -1.83594,0.20833 -2.83854,0 -4.55729,-1.82291 -1.71876,-1.83594 -1.71876,-4.8698 0,-3.00782 1.66667,-4.8698 1.67969,-1.83594 4.45313,-1.83594 2.79949,0 4.42709,1.78386 1.61459,1.77083 1.61459,4.90886 z m -3.00782,-2.39583 q -0.61198,-2.34376 -2.95573,-2.34376 -0.53386,0 -1.00261,0.16927 -0.46875,0.15625 -0.85937,0.46875 -0.37761,0.29948 -0.65105,0.72917 -0.27343,0.42969 -0.41666,0.97657 z m 6.21093,-4.63543 h 2.92969 v 1.13282 q 0.8073,-0.84636 1.4323,-1.15886 0.63802,-0.32552 1.51042,-0.32552 1.15885,0 2.42187,0.75521 l -1.34114,2.68229 q -0.83334,-0.59895 -1.62761,-0.59895 -2.39584,0 -2.39584,3.61979 v 6.57553 h -2.92969 z m 13.30732,0 v 12.68231 h -2.92969 v -12.68231 z m -3.3724,-5.27344 q 0,-0.76823 0.55989,-1.32813 0.5599,-0.55989 1.34115,-0.55989 0.79427,0 1.35417,0.55989 0.5599,0.54688 0.5599,1.34115 0,0.79427 -0.5599,1.35417 -0.54688,0.55989 -1.34115,0.55989 -0.79427,0 -1.35417,-0.55989 -0.55989,-0.5599 -0.55989,-1.36719 z m 6.48437,11.52345 q 0,-2.7474 1.96615,-4.67448 1.96615,-1.92709 4.79167,-1.92709 2.83855,0 4.81772,1.94011 1.95313,1.9401 1.95313,4.76563 0,2.85156 -1.96615,4.77865 -1.97917,1.91406 -4.85678,1.91406 -2.85157,0 -4.77865,-1.95312 -1.92709,-1.92709 -1.92709,-4.84376 z m 2.9948,0.0521 q 0,1.90105 1.01562,3.00782 1.04167,1.11979 2.7474,1.11979 1.71876,0 2.7474,-1.10677 1.02865,-1.10677 1.02865,-2.95573 0,-1.84896 -1.02865,-2.95573 -1.04166,-1.1198 -2.7474,-1.1198 -1.67969,0 -2.72135,1.1198 -1.04167,1.11979 -1.04167,2.89062 z m 22.9818,-15.61199 h 2.94272 v 21.99221 h -2.94272 v -1.32813 q -1.73177,1.69271 -3.91927,1.69271 -2.60417,0 -4.32292,-1.90104 -1.70574,-1.94011 -1.70574,-4.84376 0,-2.83854 1.70574,-4.73958 1.69271,-1.91407 4.25781,-1.91407 2.22657,0 3.98438,1.82292 z m -6.95313,15.61199 q 0,1.82292 0.97656,2.96876 1.00261,1.15885 2.52605,1.15885 1.6276,0 2.63021,-1.11979 1.00261,-1.15885 1.00261,-2.94271 0,-1.78386 -1.00261,-2.94271 -1.00261,-1.13282 -2.60417,-1.13282 -1.51042,0 -2.52605,1.14584 -1.0026,1.15885 -1.0026,2.86458 z m 14.0495,4.92189 q 0,-0.72917 0.53386,-1.26303 0.53385,-0.53385 1.27604,-0.53385 0.74219,0 1.27604,0.53385 0.53386,0.53386 0.53386,1.27605 0,0.75521 -0.53386,1.28906 -0.52083,0.52083 -1.27604,0.52083 -0.76823,0 -1.28906,-0.52083 -0.52084,-0.52083 -0.52084,-1.30208 z"
       id="text14"
       transform="matrix(0.26458333,0,0,0.26458333,11.461132,-24.427065)"
       aria-label="&#10;&#10;Fortification and population network in coastal Chaonia, Northern Epirus (Albania) between Iron Age and the Medieval period." />
  </g>
</svg>
